Coordinates
version=1
nRows=14
nColumns=46
inDegrees=yes

Units are S.I. units (second, meters, Newtons, ...)
Angles are in degrees.

endheader
time	pelvis_tilt	pelvis_list	pelvis_rotation	pelvis_tx	pelvis_ty	pelvis_tz	bb_angle	bb_tx	bb_ty	bb_tz	hip_flexion_r	hip_adduction_r	hip_rotation_r	knee_angle_r	knee_angle_r_beta	ankle_angle_r	subtalar_angle_r	mtp_angle_r	crank_angle_r	hip_flexion_l	hip_adduction_l	hip_rotation_l	knee_angle_l	knee_angle_l_beta	ankle_angle_l	subtalar_angle_l	mtp_angle_l	crank_angle_l	lumbar_extension	lumbar_bending	lumbar_rotation	arm_flex_r	arm_add_r	arm_rot_r	elbow_flex_r	pro_sup_r	wrist_flex_r	wrist_dev_r	arm_flex_l	arm_add_l	arm_rot_l	elbow_flex_l	pro_sup_l	wrist_flex_l	wrist_dev_l
      2.50000000	    -14.67842006	      6.58312445	      9.72112166	      0.21025061	      1.20235800	     -0.23911591	      0.00000000	      0.50000000	      0.00000000	      0.25000000	     28.97478873	    -12.85184009	      0.28750041	     47.30197325	      0.82557518	     -9.69368363	     -4.38512200	      0.00000000	      0.00000000	     68.98753979	      6.80648463	     -0.55507715	     89.96697304	      1.57021990	     19.34624330	     -8.35660700	      0.00000000	      0.00000000	    -57.41492744	     -6.72781491	     -9.63362788	     58.90075187	    -15.89808027	     19.61099377	     58.72101859	     47.03168156	      0.00000000	      0.00000000	     69.78320023	    -10.17953393	     34.71761890	     54.35422208	     49.65874889	      0.00000000	      0.00000000
      2.50500000	    -14.61535042	      6.41572533	     10.06305427	      0.21091957	      1.20413283	     -0.24018906	      0.00000000	      0.50000000	      0.00000000	      0.25000000	     29.72533600	    -13.01740058	      0.05618842	     49.52963717	      0.86445525	    -10.29156740	     -4.36123370	      0.00000000	      0.00000000	     68.15158986	      6.87298743	     -0.53360563	     87.91387592	      1.53438659	     18.78524832	     -7.86313781	      0.00000000	      0.00000000	    -57.69357724	     -6.14145245	     -9.66819490	     59.11598914	    -15.91945038	     19.45219305	     58.79738808	     47.04256448	      0.00000000	      0.00000000	     69.85851366	    -10.12342830	     34.58777360	     54.46955401	     49.67359934	      0.00000000	      0.00000000
      2.51000000	    -14.46084079	      6.19576433	     10.37947892	      0.21162124	      1.20588025	     -0.24121068	      0.00000000	      0.50000000	      0.00000000	      0.25000000	     30.35149240	    -13.08830032	     -0.16743320	     51.70732264	      0.90246303	    -10.72757193	     -4.29750905	      0.00000000	      0.00000000	     67.20730549	      6.95883683	     -0.43567059	     85.78354370	      1.49720528	     18.01420034	     -7.70875998	      0.00000000	      0.00000000	    -58.00709208	     -5.51266330	     -9.70543046	     59.19027616	    -15.84251478	     19.32056876	     58.86901014	     47.06514891	      0.00000000	      0.00000000	     69.83529192	    -10.13428627	     34.42198051	     54.58074837	     49.69042662	      0.00000000	      0.00000000
      2.51500000	    -14.27281961	      5.98993372	     10.63344684	      0.21249709	      1.20745372	     -0.24211204	      0.00000000	      0.50000000	      0.00000000	      0.25000000	     31.01248660	    -13.16287122	     -0.34249799	     53.90715089	      0.94085727	    -11.17747674	     -4.12502489	      0.00000000	      0.00000000	     65.99552122	      6.80516170	     -0.39239726	     83.54205338	      1.45808390	     17.48210707	     -6.66087838	      0.00000000	      0.00000000	    -58.28368534	     -4.93746308	     -9.71073145	     59.29667307	    -15.70714117	     19.22918725	     58.93795839	     47.09537348	      0.00000000	      0.00000000	     69.76130818	    -10.19913456	     34.23671157	     54.69733794	     49.70990815	      0.00000000	      0.00000000
      2.52000000	    -14.03644915	      5.53410839	     10.80745562	      0.21337150	      1.20865006	     -0.24313351	      0.00000000	      0.50000000	      0.00000000	      0.25000000	     31.65799981	    -12.95864294	     -0.56789412	     56.10001388	      0.97912995	    -11.59345510	     -4.04734489	      0.00000000	      0.00000000	     64.84040115	      6.48044588	     -0.19957454	     81.41128802	      1.42089502	     16.85321215	     -6.05322650	      0.00000000	      0.00000000	    -58.48108347	     -4.17244217	     -9.42084918	     59.45318270	    -15.59598263	     19.21838332	     58.96707321	     47.11249827	      0.00000000	      0.00000000	     69.62693540	    -10.26215310	     34.14721199	     54.75507330	     49.72200422	      0.00000000	      0.00000000
      2.52500000	    -13.81711749	      5.13437186	     10.99443257	      0.21430820	      1.20967382	     -0.24411433	      0.00000000	      0.50000000	      0.00000000	      0.25000000	     32.33748634	    -12.80924512	     -0.76766218	     58.31365536	      1.01776528	    -11.92062182	     -4.04175594	      0.00000000	      0.00000000	     63.60419962	      6.19428569	     -0.06196213	     79.18456426	      1.38203136	     16.19386515	     -5.44902659	      0.00000000	      0.00000000	    -58.66396452	     -3.47386252	     -9.19733285	     59.57232045	    -15.49129693	     19.25660967	     58.97893008	     47.13402999	      0.00000000	      0.00000000	     69.49156113	    -10.31988274	     34.03608797	     54.83614084	     49.73658391	      0.00000000	      0.00000000
      2.53000000	    -13.54559439	      4.62015993	     11.12288704	      0.21533323	      1.21050059	     -0.24495125	      0.00000000	      0.50000000	      0.00000000	      0.25000000	     33.00502613	    -12.49330791	     -0.96120762	     60.52520922	      1.05636418	    -12.22955447	     -4.02635563	      0.00000000	      0.00000000	     62.27750478	      5.79003415	      0.16554891	     76.97215117	      1.34341747	     15.59050820	     -4.95672851	      0.00000000	      0.00000000	    -58.82414825	     -2.74090097	     -8.84160357	     59.61166073	    -15.36406838	     19.32992560	     58.98457601	     47.15144139	      0.00000000	      0.00000000	     69.30136976	    -10.39636306	     33.97893862	     54.86064138	     49.74339762	      0.00000000	      0.00000000
      2.53500000	    -13.32264341	      4.38405112	     11.24665259	      0.21638129	      1.21114576	     -0.24582299	      0.00000000	      0.50000000	      0.00000000	      0.25000000	     33.76932743	    -12.52912251	     -1.14138295	     62.81567803	      1.09634040	    -12.40942396	     -4.11884627	      0.00000000	      0.00000000	     60.83174277	      5.54449388	      0.15869383	     74.60825882	      1.30215977	     14.82236364	     -4.28637397	      0.00000000	      0.00000000	    -59.00098950	     -2.18257258	     -8.76788285	     59.79209176	    -15.24117463	     19.49542639	     59.00920362	     47.19377379	      0.00000000	      0.00000000	     69.13149447	    -10.50118686	     33.81063354	     54.99322987	     49.76484393	      0.00000000	      0.00000000
      2.54000000	    -13.04403928	      3.76439334	     11.25014815	      0.21753979	      1.21146521	     -0.24664175	      0.00000000	      0.50000000	      0.00000000	      0.25000000	     34.51101286	    -12.07479204	     -1.33973040	     65.00702393	      1.13458660	    -12.63694790	     -4.10420037	      0.00000000	      0.00000000	     59.38469081	      4.99698806	      0.43997770	     72.36831566	      1.26306538	     14.41596498	     -3.97179263	      0.00000000	      0.00000000	    -59.05608486	     -1.46632680	     -8.24197438	     59.72149946	    -15.05233881	     19.62347722	     59.00311491	     47.21249522	      0.00000000	      0.00000000	     68.90400582	    -10.63432572	     33.76776769	     54.98469530	     49.76562418	      0.00000000	      0.00000000
      2.54500000	    -12.75415019	      3.70089723	     11.29751955	      0.21864519	      1.21184686	     -0.24769338	      0.00000000	      0.50000000	      0.00000000	      0.25000000	     35.31455643	    -12.26961485	     -1.30538404	     67.42064794	      1.17671229	    -12.65216524	     -4.01614820	      0.00000000	      0.00000000	     57.67776611	      4.87692700	      0.37739028	     69.92914768	      1.22049387	     13.64003514	     -3.53089921	      0.00000000	      0.00000000	    -59.30436444	     -0.94538921	     -8.80192360	     60.44292062	    -14.60860215	     20.96078656	     58.44229560	     47.43538152	      0.00000000	      0.00000000	     68.11305040	    -11.39545719	     32.72531917	     56.18260941	     50.00406904	      0.00000000	      0.00000000
      2.55000000	    -12.54213448	      3.12130517	     11.25550911	      0.21980231	      1.21173945	     -0.24861446	      0.00000000	      0.50000000	      0.00000000	      0.25000000	     36.23644330	    -11.85950673	     -1.40973816	     69.68275285	      1.21619347	    -12.77473045	     -4.13841692	      0.00000000	      0.00000000	     56.17045016	      4.31259432	      0.60220349	     67.58375556	      1.17955906	     13.04441886	     -3.00986368	      0.00000000	      0.00000000	    -59.28604479	     -0.28636237	     -8.30529504	     60.54015139	    -14.47723095	     21.04982302	     58.42834453	     47.45465146	      0.00000000	      0.00000000	     67.81071902	    -11.46856647	     32.69669815	     56.16040754	     50.01300497	      0.00000000	      0.00000000
      2.55500000	    -12.30519141	      2.58942692	     11.14301571	      0.22093818	      1.21139544	     -0.24939984	      0.00000000	      0.50000000	      0.00000000	      0.25000000	     37.21073027	    -11.45292647	     -1.42206228	     72.00515217	      1.25672698	    -12.89130041	     -4.24437597	      0.00000000	      0.00000000	     54.59681700	      3.71832496	      0.79147225	     65.29373714	      1.13959069	     12.52601003	     -2.48651540	      0.00000000	      0.00000000	    -59.27524987	      0.30884358	     -7.77867484	     60.55161466	    -14.33737549	     21.17720563	     58.42211614	     47.47615646	      0.00000000	      0.00000000	     67.51364332	    -11.56569387	     32.64569011	     56.13699417	     50.01507642	      0.00000000	      0.00000000
      2.56000000	    -12.11949584	      2.29966067	     10.89958049	      0.22231569	      1.21115766	     -0.25015525	      0.00000000	      0.50000000	      0.00000000	      0.25000000	     38.26760071	    -11.23555118	     -1.22989089	     74.29832774	      1.29675045	    -12.95101141	     -4.40539233	      0.00000000	      0.00000000	     52.86958786	      3.16843624	      0.52296877	     62.68187542	      1.09400511	     11.72782090	     -1.96151539	      0.00000000	      0.00000000	    -59.27931685	      0.60983654	     -7.45482883	     60.63000571	    -14.27098653	     21.39625798	     58.40768062	     47.51395826	      0.00000000	      0.00000000	     67.12480298	    -11.61839960	     32.48875333	     56.16972369	     50.02216907	      0.00000000	      0.00000000
      2.56500000	    -11.93177426	      1.86005935	     10.68014709	      0.22368506	      1.21059549	     -0.25103575	      0.00000000	      0.50000000	      0.00000000	      0.25000000	     39.33618331	    -10.84927255	     -1.05640097	     76.58631839	      1.33668342	    -12.92179260	     -4.44280850	      0.00000000	      0.00000000	     51.18151452	      2.57817082	      0.53543493	     60.26220060	      1.05177382	     11.12333027	     -1.47709271	      0.00000000	      0.00000000	    -59.21092091	      1.05727470	     -7.00510692	     60.63514524	    -14.16154451	     21.62529392	     58.41932518	     47.54870257	      0.00000000	      0.00000000	     66.71754818	    -11.72299705	     32.24817451	     56.23073155	     50.00972279	      0.00000000	      0.00000000
